<?xml version="1.0" standalone="no"?>
<!DOCTYPE svg PUBLIC "-//W3C//DTD SVG 20010904//EN"
 "http://www.w3.org/TR/2001/REC-SVG-20010904/DTD/svg10.dtd">
<svg version="1.0" xmlns="http://www.w3.org/2000/svg"
 width="64.000000pt" height="64.000000pt" viewBox="0 0 64.000000 64.000000"
 preserveAspectRatio="xMidYMid meet">

<g transform="translate(0.000000,64.000000) scale(0.100000,-0.100000)"
fill="#000000" stroke="none">
<path d="M175 578 c-3 -8 -4 -128 -3 -268 l3 -255 145 0 145 0 0 265 0 265
-143 3 c-109 2 -144 0 -147 -10z m90 -38 c0 -18 -6 -26 -23 -28 -13 -2 -25 3
-28 12 -10 26 4 48 28 44 17 -2 23 -10 23 -28z m80 0 c0 -18 -6 -26 -23 -28
-13 -2 -25 3 -28 12 -10 26 4 48 28 44 17 -2 23 -10 23 -28z m80 0 c0 -18 -6
-26 -23 -28 -13 -2 -25 3 -28 12 -10 26 4 48 28 44 17 -2 23 -10 23 -28z
m-160 -80 c0 -18 -6 -26 -23 -28 -24 -4 -38 18 -28 44 3 9 15 14 28 12 17 -2
23 -10 23 -28z m80 0 c0 -18 -6 -26 -23 -28 -24 -4 -38 18 -28 44 3 9 15 14
28 12 17 -2 23 -10 23 -28z m80 0 c0 -18 -6 -26 -23 -28 -24 -4 -38 18 -28 44
3 9 15 14 28 12 17 -2 23 -10 23 -28z m-160 -80 c0 -18 -6 -26 -23 -28 -13 -2
-25 3 -28 12 -10 26 4 48 28 44 17 -2 23 -10 23 -28z m80 0 c0 -18 -6 -26 -23
-28 -13 -2 -25 3 -28 12 -10 26 4 48 28 44 17 -2 23 -10 23 -28z m80 0 c0 -18
-6 -26 -23 -28 -13 -2 -25 3 -28 12 -10 26 4 48 28 44 17 -2 23 -10 23 -28z
m15 -60 c0 -6 -47 -10 -120 -10 -73 0 -120 4 -120 10 0 6 47 10 120 10 73 0
120 -4 120 -10z m-175 -60 c0 -18 -6 -26 -23 -28 -13 -2 -25 3 -28 12 -10 26
4 48 28 44 17 -2 23 -10 23 -28z m80 0 c0 -18 -6 -26 -23 -28 -13 -2 -25 3
-28 12 -10 26 4 48 28 44 17 -2 23 -10 23 -28z m80 0 c0 -18 -6 -26 -23 -28
-13 -2 -25 3 -28 12 -10 26 4 48 28 44 17 -2 23 -10 23 -28z m-160 -80 c0 -18
-6 -26 -23 -28 -24 -4 -38 18 -28 44 3 9 15 14 28 12 17 -2 23 -10 23 -28z
m80 0 c0 -18 -6 -26 -23 -28 -24 -4 -38 18 -28 44 3 9 15 14 28 12 17 -2 23
-10 23 -28z m80 0 c0 -18 -6 -26 -23 -28 -24 -4 -38 18 -28 44 3 9 15 14 28
12 17 -2 23 -10 23 -28z m-160 -80 c0 -18 -6 -26 -23 -28 -13 -2 -25 3 -28 12
-10 26 4 48 28 44 17 -2 23 -10 23 -28z m80 0 c0 -18 -6 -26 -23 -28 -13 -2
-25 3 -28 12 -10 26 4 48 28 44 17 -2 23 -10 23 -28z m80 0 c0 -18 -6 -26 -23
-28 -24 -4 -38 18 -28 44 3 9 15 14 28 12 17 -2 23 -10 23 -28z"/>
</g>
</svg>
