<svg class="svg-icon" style="width: 1em; height: 1em;vertical-align: middle;fill: currentColor;overflow: hidden;" viewBox="0 0 1024 1024" version="1.1" xmlns="http://www.w3.org/2000/svg"><path d="M510.9 127.6c-120.1 0-233.2 56.7-305.3 151.3-13.6 17.9-5 43.9 16.6 50.1 2.9 0.8 5.9 1.3 8.9 1.3 9.8 0 19.3-4.5 25.4-12.6 60.1-78.8 154.4-126.1 254.4-126.1 28.5 0 57.4 3.8 86.1 11.9C767.8 251.1 867 427 819.4 597.7c-39.5 141.7-168.2 234.1-308.1 234.1-29.3 0-59.2-4.1-88.8-12.6-130.3-37.5-218.2-150.6-230.1-277.9-1.2-13-10.4-24-23-27.6-3-0.9-6-1.3-9-1.3-18.1 0-33.6 15.6-31.8 34.9C142.9 700 248.5 835.7 404.8 880.7c35.5 10.2 71.3 15.1 106.5 15.1 167 0 320.7-109.8 369-278.5 58.4-204-60.9-417.8-265.2-475.3-34.7-9.7-69.7-14.4-104.2-14.4z"  /><path d="M204.1 162.5h-32v160c0 17.7 14.3 32 32 32h159v-32c0-17.7-14.3-32-32-32h-95v-96c0-17.7-14.3-32-32-32zM323.7 552.5l54.1-6.8c1.4 7.6 3.8 12.9 7.2 16 3.4 3.1 7.5 4.7 12.4 4.7 8.7 0 15.5-4.4 20.4-13.2 3.6-6.5 6.2-20.3 8-41.3-6.5 6.7-13.2 11.6-20 14.7-6.9 3.1-14.8 4.7-23.8 4.7-17.6 0-32.4-6.2-44.4-18.7-12.1-12.5-18.1-28.2-18.1-47.3 0-13 3.1-24.9 9.2-35.5 6.1-10.7 14.6-18.8 25.4-24.3 10.8-5.5 24.3-8.2 40.6-8.2 19.6 0 35.3 3.4 47.2 10.1 11.8 6.7 21.3 17.4 28.4 32.1 7.1 14.7 10.6 34 10.6 58.1 0 35.4-7.4 61.3-22.3 77.7-14.9 16.4-35.5 24.7-61.9 24.7-15.6 0-27.9-1.8-36.9-5.4-9-3.6-16.5-8.9-22.4-15.8-5.9-7.2-10.5-15.9-13.7-26.3z m100.2-87.4c0-10.6-2.7-18.9-8-24.9s-11.8-9-19.5-9c-7.2 0-13.2 2.7-18 8.2-4.8 5.4-7.1 13.6-7.1 24.5 0 11 2.5 19.3 7.4 25.1 4.9 5.8 11.1 8.7 18.5 8.7 7.7 0 14-2.8 19.1-8.4s7.6-13.8 7.6-24.2zM503.8 497.7c0-37.2 6.7-63.3 20.1-78.2 13.4-14.9 33.8-22.3 61.3-22.3 13.2 0 24 1.6 32.5 4.9 8.5 3.3 15.4 7.5 20.7 12.7 5.3 5.2 9.6 10.7 12.6 16.4 3.1 5.7 5.5 12.5 7.4 20.1 3.7 14.6 5.5 29.8 5.5 45.7 0 35.5-6 61.6-18 78-12 16.5-32.7 24.7-62.1 24.7-16.5 0-29.8-2.6-40-7.9-10.2-5.3-18.5-13-25-23.1-4.7-7.2-8.4-17.1-11-29.6-2.7-12.4-4-26.3-4-41.4z m54 0.1c0 24.9 2.2 42 6.6 51.1 4.4 9.1 10.8 13.7 19.2 13.7 5.5 0 10.3-1.9 14.4-5.8s7-10 9-18.4c1.9-8.4 2.9-21.4 2.9-39.2 0-26-2.2-43.5-6.6-52.4-4.4-9-11-13.4-19.8-13.4-9 0-15.5 4.6-19.5 13.7-4.2 9.1-6.2 26.1-6.2 50.7zM767.6 435.4c0 10.5-3.7 19.5-11.2 27-7.5 7.5-16.5 11.2-27.1 11.2-10.5 0-19.5-3.7-27-11.2-7.5-7.5-11.2-16.5-11.2-27 0-10.6 3.7-19.6 11.2-27.1 7.5-7.4 16.5-11.2 27-11.2 10.6 0 19.6 3.7 27.1 11.2 7.4 7.5 11.2 16.5 11.2 27.1z m-24.9-0.1c0-3.7-1.3-6.9-3.9-9.6-2.6-2.7-5.8-4-9.6-4-3.7 0-6.9 1.3-9.6 4-2.7 2.7-4 5.9-4 9.6 0 3.7 1.3 6.9 4 9.6 2.7 2.6 5.9 3.9 9.6 3.9 3.7 0 6.9-1.3 9.6-3.9 2.6-2.7 3.9-5.9 3.9-9.6z"  /></svg>