<?xml version="1.0" standalone="no"?>
<!DOCTYPE svg PUBLIC "-//W3C//DTD SVG 20010904//EN"
 "http://www.w3.org/TR/2001/REC-SVG-20010904/DTD/svg10.dtd">
<svg version="1.0" xmlns="http://www.w3.org/2000/svg"
 width="100.000000pt" height="100.000000pt" viewBox="0 0 100.000000 100.000000"
 preserveAspectRatio="xMidYMid meet">

<g transform="translate(0.000000,100.000000) scale(0.100000,-0.100000)"
fill="#000000" stroke="none">
<path d="M487 954 c-4 -4 -7 -71 -7 -148 l0 -140 -50 49 c-39 39 -52 47 -62
37 -10 -10 3 -28 60 -85 l72 -72 72 72 c57 57 70 75 60 85 -10 10 -23 2 -62
-37 l-49 -49 -3 144 c-3 134 -10 165 -31 144z"/>
<path d="M185 687 l-79 -32 -53 -85 c-29 -46 -53 -88 -53 -93 0 -4 23 -17 50
-29 l50 -21 0 -118 c0 -103 2 -120 17 -127 10 -5 100 -40 201 -77 l184 -67
196 74 197 73 3 121 3 122 49 20 c28 12 50 25 50 29 0 5 -24 47 -53 93 l-53
85 -88 34 c-60 23 -91 30 -98 23 -16 -16 -3 -28 52 -48 27 -10 50 -20 50 -23
0 -4 -70 -32 -155 -63 l-155 -57 -155 57 c-85 31 -155 59 -155 62 0 3 24 14
53 25 29 12 52 27 52 35 0 24 -25 21 -110 -13z m110 -132 c83 -31 156 -58 163
-60 14 -5 -56 -125 -73 -125 -5 0 -77 25 -160 55 -82 31 -156 58 -163 60 -14
5 56 125 73 125 5 0 78 -25 160 -55z m618 -5 c26 -42 33 -62 25 -65 -7 -2 -80
-29 -163 -60 -82 -30 -155 -55 -160 -55 -9 0 -69 88 -77 113 -3 9 292 123 322
126 8 0 32 -26 53 -59z m-436 -456 c-1 -2 -78 25 -170 59 l-167 61 0 98 c0 54
3 98 6 98 4 0 62 -21 130 -46 68 -25 128 -43 134 -39 5 3 22 27 37 53 l28 47
3 -164 c1 -90 1 -165 -1 -167z m81 276 c17 -27 35 -50 40 -50 5 0 56 17 113
39 168 62 149 68 149 -47 l0 -99 -152 -56 c-84 -30 -161 -58 -170 -62 -17 -7
-18 5 -18 159 0 91 2 166 4 166 1 0 17 -22 34 -50z"/>
</g>
</svg>
