<?xml version="1.0" ?><svg viewBox="0 0 512 512" xmlns="http://www.w3.org/2000/svg"><g id="Paint_tray"><path d="M256.0015,93.5976c-116.023,0-210,72.6244-210,162.3119C44.8479,381.6074,223.063,452.2291,346.74,402.2071a45.0282,45.0282,0,0,0,24.5-62.56c-13.2531-26.9208-36.1087-55.6723-5.0735-78.5749a35.4778,35.4778,0,0,1,41.56,1.3117L425.14,275.86c16.5857,12.9071,41.1545,1.0575,40.8618-19.95C466.0015,166.222,371.939,93.5976,256.0015,93.5976ZM142.777,261.86c-31.6119,25.16-69.686-20.1777-39.375-46.9C135.02,189.7942,173.02,235.1282,142.777,261.86Zm30.1-90.9126c1.004-40.3982,60.2524-40.39,61.25.0011C233.0691,211.3306,173.93,211.3221,172.8765,170.9473ZM302.5521,327.0481c-7.7609,47.2128-100.2063,35.2243-95.8121-12.3389C214.5479,267.5551,307.07,279.4123,302.5521,327.0481Zm5.9494-125.4758c-40.394-1.0574-40.3748-60.2566,0-61.25C348.8848,141.32,348.8869,200.5234,308.5015,201.5723Z"/></g></svg>